
        <svg xmlns="http://www.w3.org/2000/svg" xmlns:xlink="http://www.w3.org/1999/xlink" version="1.1" width="3187.5" height="1071.818336794577" viewBox="0 0 3187.5 1071.818336794577">
			
			<g transform="scale(9.375) translate(10, 10)">
				<defs id="SvgjsDefs1275"/><g id="SvgjsG1276" featureKey="PG4fjM-0" transform="matrix(4.803304617287968,0,0,4.803304617287968,-7.642057458292839,-10.47600734282033)" fill="#fff"><g xmlns="http://www.w3.org/2000/svg"><path d="M3.991,10.373c-0.221,0-0.4,0.179-0.4,0.4v3.824c0,0.221,0.179,0.4,0.4,0.4s0.4-0.18,0.4-0.4v-3.824   C4.391,10.552,4.211,10.373,3.991,10.373z"/><path d="M1.991,11.67c-0.221,0-0.4,0.179-0.4,0.4V13.3c0,0.221,0.179,0.4,0.4,0.4s0.4-0.18,0.4-0.4V12.07   C2.391,11.85,2.211,11.67,1.991,11.67z"/><path d="M20.01,10.373c-0.221,0-0.4,0.179-0.4,0.4v3.824c0,0.221,0.18,0.4,0.4,0.4s0.4-0.18,0.4-0.4v-3.824   C20.41,10.552,20.23,10.373,20.01,10.373z"/><path d="M22.01,11.67c-0.221,0-0.4,0.179-0.4,0.4V13.3c0,0.221,0.18,0.4,0.4,0.4s0.4-0.18,0.4-0.4V12.07   C22.41,11.85,22.23,11.67,22.01,11.67z"/><path d="M5.991,5.178c-0.221,0-0.4,0.179-0.4,0.4v14.213c0,0.221,0.179,0.4,0.4,0.4s0.4-0.18,0.4-0.4V5.578   C6.391,5.357,6.211,5.178,5.991,5.178z"/><path d="M7.991,8.873c-0.221,0-0.4,0.179-0.4,0.4v6.824c0,0.221,0.179,0.4,0.4,0.4s0.4-0.18,0.4-0.4V9.272   C8.391,9.052,8.211,8.873,7.991,8.873z"/><path d="M11.991,6.063c-0.221,0-0.4,0.179-0.4,0.4v12.445c0,0.221,0.179,0.4,0.4,0.4s0.4-0.18,0.4-0.4V6.462   C12.391,6.242,12.211,6.063,11.991,6.063z"/><path d="M9.991,2.181c-0.221,0-0.4,0.179-0.4,0.4v18.838c0,0.221,0.179,0.4,0.4,0.4s0.4-0.18,0.4-0.4V2.581   C10.391,2.36,10.211,2.181,9.991,2.181z"/><path d="M17.99,5.178c-0.221,0-0.4,0.179-0.4,0.4v14.213c0,0.221,0.18,0.4,0.4,0.4s0.4-0.18,0.4-0.4V5.578   C18.391,5.357,18.211,5.178,17.99,5.178z"/><path d="M15.99,8.873c-0.221,0-0.4,0.179-0.4,0.4v6.824c0,0.221,0.18,0.4,0.4,0.4s0.4-0.18,0.4-0.4V9.272   C16.391,9.052,16.211,8.873,15.99,8.873z"/><path d="M13.99,2.181c-0.221,0-0.4,0.179-0.4,0.4v18.838c0,0.221,0.18,0.4,0.4,0.4s0.4-0.18,0.4-0.4V2.581   C14.391,2.36,14.211,2.181,13.99,2.181z"/></g></g><g id="SvgjsG1277" featureKey="jxYttZ-0" transform="matrix(1.4336917562724014,0,0,1.4336917562724014,119.99999931636249,25.376344250094505)" fill="#fff"><path d="M7.52 5 l6.16 15 l-2.4 0 l-1.5 -3.92 l-5.9 0 l-1.48 3.92 l-2.4 0 l6.16 -15 l1.36 0 z M4.58 14.24 l4.5 0 l-2.24 -5.92 z M23.96 14.3 l0 5.7 l-2.08 0 l0.02 -0.08 l0 -5.42 c0 -2 -0.52 -2.88 -2.22 -2.88 c-1.92 0 -2.6 1.34 -2.6 3.08 l0 5.3 l-2.06 0 l0 -9.88 l2.06 0 l0 1.6 c0.28 -0.88 1.42 -1.68 2.6 -1.76 c1.94 -0.14 3.32 0.5 3.94 2.1 c0.42 -1.36 1.76 -2.02 2.92 -2.1 c2.68 -0.2 4.28 1.1 4.28 4.34 l0 5.7 l-2.06 0 l0 -5.5 c0 -2 -0.52 -2.88 -2.22 -2.88 c-1.72 0 -2.44 1.08 -2.58 2.68 z M42.76 15.08 c0 2.94 -2.12 5.12 -4.96 5.12 c-0.96 0 -2.18 -0.4 -2.84 -0.94 l0 5.84 l-2.06 0 l0 -14.98 l2.06 0 l0 0.78 c0.78 -0.6 1.88 -0.96 2.84 -0.96 c2.84 0 4.96 2.2 4.96 5.14 z M40.68 15.08 c0 -2.02 -1.38 -3.44 -3.08 -3.44 c-1.12 0 -2.1 0.5 -2.64 1.58 c-0.26 0.54 -0.42 1.18 -0.42 1.86 s0.16 1.32 0.42 1.86 c0.54 1.06 1.52 1.58 2.64 1.58 c1.7 0 3.08 -1.44 3.08 -3.44 z M47.239999999999995 4.619999999999999 l0 15.38 l-2.08 0 l0 -15.38 l2.08 0 z M52.6 10.12 l0 9.88 l-2.06 0 l0 -9.88 l2.06 0 z M52.7 6.5 c0 0.64 -0.5 1.14 -1.14 1.14 c-0.62 0 -1.12 -0.5 -1.12 -1.14 c0 -0.62 0.5 -1.12 1.12 -1.12 c0.64 0 1.14 0.5 1.14 1.12 z M61.14 6.699999999999999 c-0.3 -0.14 -0.8 -0.32 -1.44 -0.06 c-0.98 0.44 -1.14 0.84 -1.14 2.48 l0 1 l2.58 0 l0 1.68 l-2.58 0 l0 8.2 l-2.06 0 l0 -8.2 l-1.2 0 l0 -1.68 l1.2 0 l0 -1 c0 -1.56 0 -1.92 0.6 -2.9 c0.64 -1.06 1.68 -1.42 2.86 -1.42 c0.54 0 0.92 0.14 1.18 0.3 l0 1.6 z M71.52 10.12 c0 0 -2.5 5.92 -4.16 9.88 c-1.4 3.32 -2.5 5.32 -4.36 5.32 c-0.58 0 -1.32 -0.28 -1.86 -0.6 l0.62 -1.8 c0.16 0.14 0.52 0.34 0.76 0.4 c1.54 0.44 2.5 -2.78 3.16 -4.36 l-3.74 -8.84 l2.08 0 l2.72 6.48 l2.7 -6.48 l2.08 0 z M89.82 14.5 c0.06 0.14 0.54 1.5 -0.08 2.92 c-0.72 1.7 -2.74 2.76 -5.26 2.78 c-2.18 0 -4.16 -0.96 -5.56 -2.48 l1.48 -1.48 c0.7 1.24 2.48 2.12 4.08 2.12 c1.74 -0.02 2.76 -0.66 3.18 -1.66 c0.32 -0.74 0.06 -1.54 0.04 -1.56 c-0.42 -1.16 -1.58 -1.42 -3.22 -1.92 c-1.86 -0.56 -4 -1.02 -4.7 -2.98 c-0.38 -1.02 -0.28 -2.2 0.24 -3.16 c1.16 -2.2 4.12 -2.26 4.46 -2.26 c2.2 0 4.16 0.96 5.56 2.5 l-1.46 1.46 c-0.82 -1.2 -2.42 -2.12 -4.1 -2.12 c-0.02 0 -1.78 0 -2.46 1.28 c-0.26 0.5 -0.32 1.16 -0.14 1.68 c0.4 1.1 1.54 1.36 3.14 1.84 c1.9 0.58 4.04 1.02 4.8 3.04 z M96.46 18.36 c0.64 0.26 1.14 0.08 1.44 -0.06 l0 1.6 c-0.26 0.16 -0.64 0.3 -1.18 0.3 c-1.18 0 -2.22 -0.38 -2.86 -1.42 c-0.6 -1 -0.6 -1.54 -0.6 -3.1 l0 -3.88 l-1.2 0 l0 -1.68 l1.2 0 l0 -3.12 l2.06 0 l0 3.12 l2.58 0 l0 1.68 l-2.58 0 l0 3.88 c0 1.64 0.16 2.24 1.14 2.68 z M100.16 15.82 l0 -5.7 l2.06 0 l0 5.5 c0 2 0.62 2.88 2.32 2.88 c1.92 0 2.7 -1.34 2.7 -3.08 l0 -5.3 l2.06 0 l0 9.88 l-2.06 0 l0 -1.6 c-0.28 0.88 -1.52 1.68 -2.7 1.76 c-2.68 0.2 -4.38 -1.1 -4.38 -4.34 z M111.69999999999999 15.08 c0 -2.94 2.1 -5.14 4.94 -5.14 c0.98 0 2.18 0.42 2.84 0.96 l0 -5.9 l2.08 0 l0 15 l-2.08 0 l0 -0.74 c-0.78 0.58 -1.86 0.94 -2.84 0.94 c-2.84 0 -4.94 -2.18 -4.94 -5.12 z M113.77999999999999 15.08 c0 2 1.38 3.44 3.06 3.44 c1.12 0 2.12 -0.52 2.64 -1.58 c0.28 -0.54 0.44 -1.18 0.44 -1.86 s-0.16 -1.32 -0.44 -1.88 c-0.52 -1.06 -1.52 -1.56 -2.64 -1.56 c-1.68 0 -3.06 1.42 -3.06 3.44 z M126.72 10.12 l0 9.88 l-2.06 0 l0 -9.88 l2.06 0 z M126.82 6.5 c0 0.64 -0.5 1.14 -1.14 1.14 c-0.62 0 -1.12 -0.5 -1.12 -1.14 c0 -0.62 0.5 -1.12 1.12 -1.12 c0.64 0 1.14 0.5 1.14 1.12 z M134.35999999999999 11.64 c-1.7 0 -3.08 1.42 -3.08 3.44 c0 2 1.38 3.44 3.08 3.44 s3.08 -1.44 3.08 -3.44 c0 -2.02 -1.38 -3.44 -3.08 -3.44 z M134.35999999999999 9.94 c2.84 0 5.14 2.2 5.14 5.14 s-2.3 5.12 -5.14 5.12 s-5.14 -2.18 -5.14 -5.12 s2.3 -5.14 5.14 -5.14 z"/></g>
			</g>
		</svg>
	